<svg xmlns="http://www.w3.org/2000/svg" version="1.1" xmlns:xlink="http://www.w3.org/1999/xlink" width="1000" height="1000"><metadata><rdf:RDF xmlns:rdf="http://www.w3.org/1999/02/22-rdf-syntax-ns#" xmlns:dc="http://purl.org/dc/elements/1.1/"><rdf:Description><dc:creator>RealFaviconGenerator</dc:creator><dc:source>https://realfavicongenerator.net</dc:source></rdf:Description></rdf:RDF></metadata><style>
    #light-icon {
      display: inline;
    }
    #dark-icon {
      display: none;
    }

    @media (prefers-color-scheme: dark) {
      #light-icon {
        display: none;
      }
      #dark-icon {
        display: inline;
      }
    }
  </style><g id="light-icon"><svg xmlns="http://www.w3.org/2000/svg" version="1.1" xmlns:xlink="http://www.w3.org/1999/xlink" width="1000" height="1000"><g clip-path="url(#SvgjsClipPath1127)"><rect width="1000" height="1000" fill="#8e51ff"></rect><g transform="matrix(20.833333333333332,0,0,20.833333333333332,0,0)"><svg xmlns="http://www.w3.org/2000/svg" width="48" height="48" viewBox="0 0 48 48" fill="none"><rect width="48" height="48" fill="#8E51FF"></rect><path d="M20.0566 14.3223C21.7662 11.2132 26.2338 11.2132 27.9434 14.3223L34.2715 25.832C35.9204 28.8309 33.7513 32.4997 30.3291 32.5H17.6719C14.2494 32.5 12.0795 28.831 13.7285 25.832L20.0566 14.3223Z" stroke="#FFCE2D" stroke-width="4"></path></svg></g></g><defs><clipPath id="SvgjsClipPath1127"><rect width="1000" height="1000" x="0" y="0" rx="350" ry="350"></rect></clipPath></defs></svg></g><g id="dark-icon"><svg xmlns="http://www.w3.org/2000/svg" version="1.1" xmlns:xlink="http://www.w3.org/1999/xlink" width="1000" height="1000"><g clip-path="url(#SvgjsClipPath1128)"><rect width="1000" height="1000" fill="#7f22fe"></rect><g transform="matrix(20.833333333333332,0,0,20.833333333333332,0,0)"><svg xmlns="http://www.w3.org/2000/svg" width="48" height="48" viewBox="0 0 48 48" fill="none"><rect width="48" height="48" fill="#7F22FE"></rect><path d="M20.0566 14.3223C21.7662 11.2132 26.2338 11.2132 27.9434 14.3223L34.2715 25.832C35.9204 28.8309 33.7513 32.4997 30.3291 32.5H17.6719C14.2494 32.5 12.0795 28.831 13.7285 25.832L20.0566 14.3223Z" stroke="#FFCE2D" stroke-width="4"></path></svg></g></g><defs><clipPath id="SvgjsClipPath1128"><rect width="1000" height="1000" x="0" y="0" rx="300" ry="300"></rect></clipPath></defs></svg></g></svg>